<svg id="visual" viewBox="0 0 900 600" width="900" height="600" xmlns="http://www.w3.org/2000/svg" xmlns:xlink="http://www.w3.org/1999/xlink" version="1.1"><rect x="0" y="0" width="900" height="600" fill="#623842"></rect><path d="M0 395L21.5 390.8C43 386.7 86 378.3 128.8 377.2C171.7 376 214.3 382 257.2 390.5C300 399 343 410 385.8 403.8C428.7 397.7 471.3 374.3 514.2 369C557 363.7 600 376.3 642.8 382C685.7 387.7 728.3 386.3 771.2 394.3C814 402.3 857 419.7 878.5 428.3L900 437L900 601L878.5 601C857 601 814 601 771.2 601C728.3 601 685.7 601 642.8 601C600 601 557 601 514.2 601C471.3 601 428.7 601 385.8 601C343 601 300 601 257.2 601C214.3 601 171.7 601 128.8 601C86 601 43 601 21.5 601L0 601Z" fill="#af7991"></path><path d="M0 474L21.5 468.8C43 463.7 86 453.3 128.8 454.3C171.7 455.3 214.3 467.7 257.2 465.2C300 462.7 343 445.3 385.8 437.7C428.7 430 471.3 432 514.2 434.2C557 436.3 600 438.7 642.8 437.2C685.7 435.7 728.3 430.3 771.2 427.2C814 424 857 423 878.5 422.5L900 422L900 601L878.5 601C857 601 814 601 771.2 601C728.3 601 685.7 601 642.8 601C600 601 557 601 514.2 601C471.3 601 428.7 601 385.8 601C343 601 300 601 257.2 601C214.3 601 171.7 601 128.8 601C86 601 43 601 21.5 601L0 601Z" fill="#9b687c"></path><path d="M0 458L21.5 456.8C43 455.7 86 453.3 128.8 451.7C171.7 450 214.3 449 257.2 451.2C300 453.3 343 458.7 385.8 465C428.7 471.3 471.3 478.7 514.2 483.5C557 488.3 600 490.7 642.8 483.8C685.7 477 728.3 461 771.2 455.8C814 450.7 857 456.3 878.5 459.2L900 462L900 601L878.5 601C857 601 814 601 771.2 601C728.3 601 685.7 601 642.8 601C600 601 557 601 514.2 601C471.3 601 428.7 601 385.8 601C343 601 300 601 257.2 601C214.3 601 171.7 601 128.8 601C86 601 43 601 21.5 601L0 601Z" fill="#885768"></path><path d="M0 523L21.5 523.8C43 524.7 86 526.3 128.8 526.7C171.7 527 214.3 526 257.2 522.8C300 519.7 343 514.3 385.8 507C428.7 499.7 471.3 490.3 514.2 486.8C557 483.3 600 485.7 642.8 493.8C685.7 502 728.3 516 771.2 524C814 532 857 534 878.5 535L900 536L900 601L878.5 601C857 601 814 601 771.2 601C728.3 601 685.7 601 642.8 601C600 601 557 601 514.2 601C471.3 601 428.7 601 385.8 601C343 601 300 601 257.2 601C214.3 601 171.7 601 128.8 601C86 601 43 601 21.5 601L0 601Z" fill="#754754"></path><path d="M0 524L21.5 524.8C43 525.7 86 527.3 128.8 527.3C171.7 527.3 214.3 525.7 257.2 529C300 532.3 343 540.7 385.8 545.2C428.7 549.7 471.3 550.3 514.2 553.3C557 556.3 600 561.7 642.8 564.3C685.7 567 728.3 567 771.2 567.3C814 567.7 857 568.3 878.5 568.7L900 569L900 601L878.5 601C857 601 814 601 771.2 601C728.3 601 685.7 601 642.8 601C600 601 557 601 514.2 601C471.3 601 428.7 601 385.8 601C343 601 300 601 257.2 601C214.3 601 171.7 601 128.8 601C86 601 43 601 21.5 601L0 601Z" fill="#623842"></path></svg>