<svg id="visual" viewBox="0 0 900 600" width="900" height="600" xmlns="http://www.w3.org/2000/svg" xmlns:xlink="http://www.w3.org/1999/xlink" version="1.1"><rect x="0" y="0" width="900" height="600" fill="#623842"></rect><path d="M0 389L21.5 392C43 395 86 401 128.8 402.5C171.7 404 214.3 401 257.2 403.8C300 406.7 343 415.3 385.8 409.7C428.7 404 471.3 384 514.2 372.7C557 361.3 600 358.7 642.8 366C685.7 373.3 728.3 390.7 771.2 392.8C814 395 857 382 878.5 375.5L900 369L900 601L878.5 601C857 601 814 601 771.2 601C728.3 601 685.7 601 642.8 601C600 601 557 601 514.2 601C471.3 601 428.7 601 385.8 601C343 601 300 601 257.2 601C214.3 601 171.7 601 128.8 601C86 601 43 601 21.5 601L0 601Z" fill="#af7991"></path><path d="M0 477L21.5 472.5C43 468 86 459 128.8 454.3C171.7 449.7 214.3 449.3 257.2 453C300 456.7 343 464.3 385.8 458.2C428.7 452 471.3 432 514.2 420.7C557 409.3 600 406.7 642.8 411.2C685.7 415.7 728.3 427.3 771.2 432.2C814 437 857 435 878.5 434L900 433L900 601L878.5 601C857 601 814 601 771.2 601C728.3 601 685.7 601 642.8 601C600 601 557 601 514.2 601C471.3 601 428.7 601 385.8 601C343 601 300 601 257.2 601C214.3 601 171.7 601 128.8 601C86 601 43 601 21.5 601L0 601Z" fill="#996679"></path><path d="M0 499L21.5 490.5C43 482 86 465 128.8 464.7C171.7 464.3 214.3 480.7 257.2 484.5C300 488.3 343 479.7 385.8 474.7C428.7 469.7 471.3 468.3 514.2 462.8C557 457.3 600 447.7 642.8 447.2C685.7 446.7 728.3 455.3 771.2 455.7C814 456 857 448 878.5 444L900 440L900 601L878.5 601C857 601 814 601 771.2 601C728.3 601 685.7 601 642.8 601C600 601 557 601 514.2 601C471.3 601 428.7 601 385.8 601C343 601 300 601 257.2 601C214.3 601 171.7 601 128.8 601C86 601 43 601 21.5 601L0 601Z" fill="#845363"></path><path d="M0 513L21.5 508.2C43 503.3 86 493.7 128.8 490C171.7 486.3 214.3 488.7 257.2 495.5C300 502.3 343 513.7 385.8 519.3C428.7 525 471.3 525 514.2 524.3C557 523.7 600 522.3 642.8 516.3C685.7 510.3 728.3 499.7 771.2 499.5C814 499.3 857 509.7 878.5 514.8L900 520L900 601L878.5 601C857 601 814 601 771.2 601C728.3 601 685.7 601 642.8 601C600 601 557 601 514.2 601C471.3 601 428.7 601 385.8 601C343 601 300 601 257.2 601C214.3 601 171.7 601 128.8 601C86 601 43 601 21.5 601L0 601Z" fill="#6f414d"></path><path d="M0 550L21.5 552.3C43 554.7 86 559.3 128.8 559.3C171.7 559.3 214.3 554.7 257.2 552C300 549.3 343 548.7 385.8 548.7C428.7 548.7 471.3 549.3 514.2 552.2C557 555 600 560 642.8 559.8C685.7 559.7 728.3 554.3 771.2 554.5C814 554.7 857 560.3 878.5 563.2L900 566L900 601L878.5 601C857 601 814 601 771.2 601C728.3 601 685.7 601 642.8 601C600 601 557 601 514.2 601C471.3 601 428.7 601 385.8 601C343 601 300 601 257.2 601C214.3 601 171.7 601 128.8 601C86 601 43 601 21.5 601L0 601Z" fill="#5a2f39"></path></svg>