<svg id="visual" viewBox="0 0 900 600" width="900" height="600" xmlns="http://www.w3.org/2000/svg" xmlns:xlink="http://www.w3.org/1999/xlink" version="1.1"><rect x="0" y="0" width="900" height="600" fill="#5A2F39"></rect><path d="M0 432L21.5 433C43 434 86 436 128.8 437.7C171.7 439.3 214.3 440.7 257.2 436.8C300 433 343 424 385.8 424.7C428.7 425.3 471.3 435.7 514.2 436.5C557 437.3 600 428.7 642.8 416.8C685.7 405 728.3 390 771.2 386.5C814 383 857 391 878.5 395L900 399L900 601L878.5 601C857 601 814 601 771.2 601C728.3 601 685.7 601 642.8 601C600 601 557 601 514.2 601C471.3 601 428.7 601 385.8 601C343 601 300 601 257.2 601C214.3 601 171.7 601 128.8 601C86 601 43 601 21.5 601L0 601Z" fill="#6f414d"></path><path d="M0 464L21.5 455.5C43 447 86 430 128.8 427.3C171.7 424.7 214.3 436.3 257.2 436.2C300 436 343 424 385.8 417.7C428.7 411.3 471.3 410.7 514.2 419.5C557 428.3 600 446.7 642.8 452.8C685.7 459 728.3 453 771.2 444.7C814 436.3 857 425.7 878.5 420.3L900 415L900 601L878.5 601C857 601 814 601 771.2 601C728.3 601 685.7 601 642.8 601C600 601 557 601 514.2 601C471.3 601 428.7 601 385.8 601C343 601 300 601 257.2 601C214.3 601 171.7 601 128.8 601C86 601 43 601 21.5 601L0 601Z" fill="#7f4e5d"></path><path d="M0 468L21.5 468.2C43 468.3 86 468.7 128.8 466.2C171.7 463.7 214.3 458.3 257.2 464.7C300 471 343 489 385.8 491.3C428.7 493.7 471.3 480.3 514.2 470.8C557 461.3 600 455.7 642.8 462.2C685.7 468.7 728.3 487.3 771.2 490.7C814 494 857 482 878.5 476L900 470L900 601L878.5 601C857 601 814 601 771.2 601C728.3 601 685.7 601 642.8 601C600 601 557 601 514.2 601C471.3 601 428.7 601 385.8 601C343 601 300 601 257.2 601C214.3 601 171.7 601 128.8 601C86 601 43 601 21.5 601L0 601Z" fill="#8f5c6e"></path><path d="M0 507L21.5 512.7C43 518.3 86 529.7 128.8 531.2C171.7 532.7 214.3 524.3 257.2 521.7C300 519 343 522 385.8 522.3C428.7 522.7 471.3 520.3 514.2 522.2C557 524 600 530 642.8 531.2C685.7 532.3 728.3 528.7 771.2 523.8C814 519 857 513 878.5 510L900 507L900 601L878.5 601C857 601 814 601 771.2 601C728.3 601 685.7 601 642.8 601C600 601 557 601 514.2 601C471.3 601 428.7 601 385.8 601C343 601 300 601 257.2 601C214.3 601 171.7 601 128.8 601C86 601 43 601 21.5 601L0 601Z" fill="#9f6a7f"></path><path d="M0 568L21.5 567.3C43 566.7 86 565.3 128.8 564.5C171.7 563.7 214.3 563.3 257.2 562.7C300 562 343 561 385.8 557.2C428.7 553.3 471.3 546.7 514.2 541.7C557 536.7 600 533.3 642.8 537C685.7 540.7 728.3 551.3 771.2 558.7C814 566 857 570 878.5 572L900 574L900 601L878.5 601C857 601 814 601 771.2 601C728.3 601 685.7 601 642.8 601C600 601 557 601 514.2 601C471.3 601 428.7 601 385.8 601C343 601 300 601 257.2 601C214.3 601 171.7 601 128.8 601C86 601 43 601 21.5 601L0 601Z" fill="#af7991"></path></svg>