<svg id="visual" viewBox="0 0 900 600" width="900" height="600" xmlns="http://www.w3.org/2000/svg" xmlns:xlink="http://www.w3.org/1999/xlink" version="1.1"><rect x="0" y="0" width="900" height="600" fill="#623842"></rect><g fill="#7b465c"><path d="M0 -111.4L25 -34.4L105.9 -34.4L40.5 13.1L65.5 90.1L0 42.5L-65.5 90.1L-40.5 13.1L-105.9 -34.4L-25 -34.4Z" transform="translate(323 165)"></path><path d="M0 -49.1L11 -15.2L46.7 -15.2L17.8 5.8L28.8 39.7L0 18.7L-28.8 39.7L-17.8 5.8L-46.7 -15.2L-11 -15.2Z" transform="translate(98 12)"></path><path d="M0 -70.8L15.9 -21.9L67.3 -21.9L25.7 8.4L41.6 57.3L0 27L-41.6 57.3L-25.7 8.4L-67.3 -21.9L-15.9 -21.9Z" transform="translate(168 573)"></path><path d="M0 -61.3L13.8 -19L58.3 -19L22.3 7.2L36.1 49.6L0 23.4L-36.1 49.6L-22.3 7.2L-58.3 -19L-13.8 -19Z" transform="translate(744 33)"></path></g></svg>